<svg width="512" height="512" viewBox="0 0 512 512" fill="none" xmlns="http://www.w3.org/2000/svg">
  <rect width="512" height="512" rx="96" fill="#F4F8FB"/>
  <rect x="80" y="92" width="352" height="328" rx="48" fill="white" stroke="#C9D9E8" stroke-width="12"/>
  <path d="M160 188C160 161.49 181.49 140 208 140H304C330.51 140 352 161.49 352 188V196C352 222.51 330.51 244 304 244H208C181.49 244 160 222.51 160 196V188Z" fill="#E7F8F6"/>
  <path d="M164 312C164 276.654 192.654 248 228 248H284C319.346 248 348 276.654 348 312V320C348 355.346 319.346 384 284 384H228C192.654 384 164 355.346 164 320V312Z" fill="#EEF4FF"/>
  <circle cx="176" cy="126" r="26" fill="#22C3A6"/>
  <circle cx="336" cy="126" r="18" fill="#3A86FF"/>
  <circle cx="378" cy="164" r="10" fill="#FDB44B"/>
  <path d="M206 178H306" stroke="#22C3A6" stroke-width="16" stroke-linecap="round"/>
  <path d="M206 206H272" stroke="#3A86FF" stroke-width="16" stroke-linecap="round"/>
  <path d="M204 308C204 279.281 227.281 256 256 256C284.719 256 308 279.281 308 308V318H204V308Z" fill="#3A86FF"/>
  <path d="M228 212C228 196.536 240.536 184 256 184C271.464 184 284 196.536 284 212C284 227.464 271.464 240 256 240C240.536 240 228 227.464 228 212Z" fill="#1C4C7C"/>
  <path d="M118 402C118 391.507 126.507 383 137 383H375C385.493 383 394 391.507 394 402C394 412.493 385.493 421 375 421H137C126.507 421 118 412.493 118 402Z" fill="#DCE8F4"/>
  <path d="M146 402H256" stroke="#22C3A6" stroke-width="18" stroke-linecap="round"/>
  <path d="M286 402H346" stroke="#3A86FF" stroke-width="18" stroke-linecap="round"/>
</svg>
